<svg width="401" height="93" viewBox="0 0 401 93" fill="none" xmlns="http://www.w3.org/2000/svg">
<path d="M56.7 4H0.5V59.7C0.5 68.5 7.3 76 16.1 76.3C25.3 76.7 32.9 69.2 32.9 60.1V36.4H56.3C65.1 36.4 72.5 29.5 72.8 20.8C73.2 11.5 65.9 4 56.7 4Z" fill="#B3B9C0"/>
<path d="M56.3 76.3C65.4679 76.3 72.9 68.8679 72.9 59.7C72.9 50.5321 65.4679 43.1 56.3 43.1C47.1321 43.1 39.7 50.5321 39.7 59.7C39.7 68.8679 47.1321 76.3 56.3 76.3Z" fill="#B3B9C0"/>
<path d="M339.6 4H326.4V75.3H339.6V4Z" fill="#B3B9C0"/>
<path d="M381.5 24.6L369.7 54.8L356 24.6H341.8L363.1 71.9L360.7 78.1C360.2 79.4 359.7 79.7 359.6 79.8C359.4 79.9 358.8 80.2 357.2 80.2H345.8V92.5H358.6C360.8 92.5 362.7 92.3 364.2 91.8C365.9 91.3 367.4 90.3 368.7 89C369.9 87.7 371 86 371.9 83.7L395.3 24.6H381.5Z" fill="#B3B9C0"/>
<path d="M119.1 11.8V24.5H106V36.6H119.1V75.3H132.3V36.6H144.7V24.5H132.4V16.4C132.4 15.3 133.3 14.4 134.4 14.4H146.3V1.20001H129.7C123.8 1.20001 119.1 5.90001 119.1 11.8Z" fill="#B3B9C0"/>
<path d="M245.8 36.8C246.9 36 248.5 35.5 250.5 35.5H251.4C253.5 35.5 255 36 256.1 37.1C257.1 38.1 257.7 39.3 258 40.7H271.3C271.2 35.7 269.4 31.6 265.8 28.4C262.2 25.2 257.2 23.6 250.8 23.6C245.5 23.6 240.8 25 237.1 27.8C233.1 30.8 231.1 34.9 231.1 40C231.1 48.2 236.3 53.4 246.4 55.4L253.1 56.7C257.6 57.6 257.6 59.6 257.6 60.5C257.6 61.5 257.1 62.3 256.1 63C254.8 63.9 253.2 64.3 251.3 64.3H250.4C248.1 64.3 246.2 63.8 244.7 62.7C243.5 61.9 242.8 60.7 242.5 59.2H229.2V59.5C229.6 64.4 231.6 68.4 235.1 71.4C238.7 74.6 243.9 76.2 250.3 76.2C256.1 76.2 261 74.8 264.8 71.9C268.8 68.9 270.8 64.9 270.8 60.1C270.8 49.5 262.9 45.7 256.2 44.4L248.9 42.9C244.2 42 244.2 40 244.2 39.1C244.3 38.6 244.5 37.7 245.8 36.8Z" fill="#B3B9C0"/>
<path d="M216.7 26.9C213.2 24.7 209 23.6 204.1 23.6C199.2 23.6 194.8 24.7 191.2 27C187.6 29.2 184.7 32.4 182.8 36.4C180.9 40.4 179.9 44.9 179.9 50C179.9 55.3 181 60.1 183.2 64C185.4 68 188.4 71.1 192.1 73.2C195.8 75.3 199.8 76.4 204.1 76.4C208.2 76.4 211.9 75.7 215 74.2C218.2 72.8 220.8 70.7 222.8 68.2C224.8 65.7 226.2 62.7 227 59.4H213.1C212.6 60.9 211.8 62.2 210.4 63.3C209 64.4 207.1 65 204.9 65H204.1C202.4 65 200.7 64.5 199.2 63.6C197.6 62.7 196.3 61.4 195.2 59.8C194.2 58.3 193.6 56.6 193.4 54.7H227V54.2C227.1 52 227.2 50.5 227.2 49.5C227.2 44.6 226.3 40.1 224.6 36.2C222.8 32.2 220.2 29.1 216.7 26.9ZM193.4 43.5C193.6 41.9 194 40.4 194.8 39.2C195.7 37.8 196.9 36.8 198.3 36.1C199.7 35.4 201.4 35 203.1 35H203.9C205.6 35 207.2 35.4 208.7 36.1C210.1 36.8 211.3 37.9 212.2 39.2C213 40.4 213.5 41.9 213.6 43.5H193.4Z" fill="#B3B9C0"/>
<path d="M303.9 23.5C300.7 23.5 297.7 24.3 294.9 25.8C292.2 27.3 290 29.4 288.5 32V7V4.1V4H275.3V4.1V6.9V75.3H288.5V47.1C288.5 44.7 289 42.6 290 40.6C291 38.6 292.3 37.1 294 35.9C295.7 34.7 297.5 34.2 299.5 34.2H300.3C302.8 34.2 304.8 35.1 306.2 36.8C307.6 38.5 308.3 41 308.3 44.3V75.3H321.5V42.8C321.5 36.9 320 32.3 317.1 28.7C314.1 25.2 309.7 23.5 303.9 23.5Z" fill="#B3B9C0"/>
<path d="M167.9 27C165.4 28.9 163.6 31.5 162.6 34.8V26.4V24.7V24.4H149.5V24.7V26.4V75.3H162.6V49C162.6 44.7 163.6 41.5 165.7 39.4C167.8 37.3 170.9 36.3 175.3 36.3H179.9V24.3H177.3C173.5 24.3 170.4 25.2 167.9 27Z" fill="#B3B9C0"/>
<path d="M399.9 20.7C399.9 21.7 399.1 22.5 398.1 22.5C397.1 22.5 396.2 21.7 396.2 20.7C396.2 19.7 397 18.9 398.1 18.9C399.1 18.9 399.9 19.7 399.9 20.7ZM396.7 20.7C396.7 21.5 397.3 22.1 398.1 22.1C398.9 22.1 399.5 21.5 399.5 20.7C399.5 19.9 398.9 19.2 398.1 19.2C397.3 19.3 396.7 19.9 396.7 20.7ZM397.8 21.7H397.4V19.9C397.6 19.9 397.8 19.8 398.1 19.8C398.4 19.8 398.6 19.9 398.7 19.9C398.8 20 398.9 20.1 398.9 20.3C398.9 20.5 398.7 20.7 398.5 20.7C398.7 20.8 398.8 20.9 398.8 21.1C398.9 21.4 398.9 21.5 398.9 21.6H398.4C398.3 21.5 398.3 21.4 398.3 21.2C398.3 21 398.2 20.9 397.9 20.9H397.7V21.7H397.8ZM397.8 20.6H398C398.2 20.6 398.4 20.5 398.4 20.3C398.4 20.1 398.3 20 398 20C397.9 20 397.8 20 397.8 20V20.6Z" fill="#03514E"/>
</svg>
